<mxfile host="Electron" modified="2024-01-22T09:56:59.238Z" agent="Mozilla/5.0 (Windows NT 10.0; Win64; x64) AppleWebKit/537.36 (KHTML, like Gecko) draw.io/22.1.18 Chrome/120.0.6099.199 Electron/28.1.2 Safari/537.36" etag="MDrOUkfSGl4PJ_GRwq-A" version="22.1.18" type="device">
  <diagram id="C5RBs43oDa-KdzZeNtuy" name="Page-1">
    <mxGraphModel dx="2632" dy="1774" grid="0" gridSize="10" guides="1" tooltips="1" connect="1" arrows="1" fold="1" page="0" pageScale="1" pageWidth="827" pageHeight="1169" math="0" shadow="0">
      <root>
        <mxCell id="WIyWlLk6GJQsqaUBKTNV-0" />
        <mxCell id="WIyWlLk6GJQsqaUBKTNV-1" parent="WIyWlLk6GJQsqaUBKTNV-0" />
        <mxCell id="KJHNV3jYbjOyEQVk-YHy-24" style="edgeStyle=orthogonalEdgeStyle;rounded=0;orthogonalLoop=1;jettySize=auto;html=1;" parent="WIyWlLk6GJQsqaUBKTNV-1" source="KJHNV3jYbjOyEQVk-YHy-4" target="KJHNV3jYbjOyEQVk-YHy-8" edge="1">
          <mxGeometry relative="1" as="geometry" />
        </mxCell>
        <mxCell id="KJHNV3jYbjOyEQVk-YHy-4" value="&lt;i&gt;BasePromptTemplate&lt;/i&gt;" style="swimlane;fontStyle=1;align=center;verticalAlign=top;childLayout=stackLayout;horizontal=1;startSize=26;horizontalStack=0;resizeParent=1;resizeParentMax=0;resizeLast=0;collapsible=1;marginBottom=0;whiteSpace=wrap;html=1;" parent="WIyWlLk6GJQsqaUBKTNV-1" vertex="1">
          <mxGeometry x="940" y="200" width="160" height="190" as="geometry">
            <mxRectangle x="210" y="280" width="100" height="30" as="alternateBounds" />
          </mxGeometry>
        </mxCell>
        <mxCell id="KJHNV3jYbjOyEQVk-YHy-5" value="+&amp;nbsp;input_variables:List&lt;br&gt;+&amp;nbsp;output_parser&lt;br&gt;+&amp;nbsp;partial_variables" style="text;strokeColor=none;fillColor=none;align=left;verticalAlign=top;spacingLeft=4;spacingRight=4;overflow=hidden;rotatable=0;points=[[0,0.5],[1,0.5]];portConstraint=eastwest;whiteSpace=wrap;html=1;" parent="KJHNV3jYbjOyEQVk-YHy-4" vertex="1">
          <mxGeometry y="26" width="160" height="54" as="geometry" />
        </mxCell>
        <mxCell id="KJHNV3jYbjOyEQVk-YHy-6" value="" style="line;strokeWidth=1;fillColor=none;align=left;verticalAlign=middle;spacingTop=-1;spacingLeft=3;spacingRight=3;rotatable=0;labelPosition=right;points=[];portConstraint=eastwest;strokeColor=inherit;" parent="KJHNV3jYbjOyEQVk-YHy-4" vertex="1">
          <mxGeometry y="80" width="160" height="8" as="geometry" />
        </mxCell>
        <mxCell id="KJHNV3jYbjOyEQVk-YHy-7" value="+&amp;nbsp;invoke()&lt;br&gt;+&amp;nbsp;partial()&lt;br&gt;+ dict()&lt;br&gt;+ save()&lt;br&gt;&lt;i&gt;+&amp;nbsp;format_prompt()&lt;br&gt;+ format()&lt;/i&gt;" style="text;strokeColor=none;fillColor=none;align=left;verticalAlign=top;spacingLeft=4;spacingRight=4;overflow=hidden;rotatable=0;points=[[0,0.5],[1,0.5]];portConstraint=eastwest;whiteSpace=wrap;html=1;" parent="KJHNV3jYbjOyEQVk-YHy-4" vertex="1">
          <mxGeometry y="88" width="160" height="102" as="geometry" />
        </mxCell>
        <mxCell id="KJHNV3jYbjOyEQVk-YHy-120" style="edgeStyle=orthogonalEdgeStyle;rounded=0;orthogonalLoop=1;jettySize=auto;html=1;" parent="WIyWlLk6GJQsqaUBKTNV-1" source="KJHNV3jYbjOyEQVk-YHy-8" target="KJHNV3jYbjOyEQVk-YHy-16" edge="1">
          <mxGeometry relative="1" as="geometry">
            <Array as="points">
              <mxPoint x="1020" y="-30" />
              <mxPoint x="340" y="-30" />
            </Array>
          </mxGeometry>
        </mxCell>
        <mxCell id="KJHNV3jYbjOyEQVk-YHy-121" style="edgeStyle=orthogonalEdgeStyle;rounded=0;orthogonalLoop=1;jettySize=auto;html=1;" parent="WIyWlLk6GJQsqaUBKTNV-1" source="KJHNV3jYbjOyEQVk-YHy-8" target="KJHNV3jYbjOyEQVk-YHy-12" edge="1">
          <mxGeometry relative="1" as="geometry">
            <Array as="points">
              <mxPoint x="1020" y="-30" />
              <mxPoint x="590" y="-30" />
            </Array>
          </mxGeometry>
        </mxCell>
        <mxCell id="KJHNV3jYbjOyEQVk-YHy-8" value="RunnableSerializable" style="swimlane;fontStyle=1;align=center;verticalAlign=top;childLayout=stackLayout;horizontal=1;startSize=26;horizontalStack=0;resizeParent=1;resizeParentMax=0;resizeLast=0;collapsible=1;marginBottom=0;whiteSpace=wrap;html=1;" parent="WIyWlLk6GJQsqaUBKTNV-1" vertex="1">
          <mxGeometry x="940" y="120" width="160" height="34" as="geometry">
            <mxRectangle x="210" y="280" width="100" height="30" as="alternateBounds" />
          </mxGeometry>
        </mxCell>
        <mxCell id="KJHNV3jYbjOyEQVk-YHy-10" value="" style="line;strokeWidth=1;fillColor=none;align=left;verticalAlign=middle;spacingTop=-1;spacingLeft=3;spacingRight=3;rotatable=0;labelPosition=right;points=[];portConstraint=eastwest;strokeColor=inherit;" parent="KJHNV3jYbjOyEQVk-YHy-8" vertex="1">
          <mxGeometry y="26" width="160" height="8" as="geometry" />
        </mxCell>
        <mxCell id="KJHNV3jYbjOyEQVk-YHy-12" value="&lt;i&gt;Runnable&lt;/i&gt;" style="swimlane;fontStyle=1;align=center;verticalAlign=top;childLayout=stackLayout;horizontal=1;startSize=26;horizontalStack=0;resizeParent=1;resizeParentMax=0;resizeLast=0;collapsible=1;marginBottom=0;whiteSpace=wrap;html=1;" parent="WIyWlLk6GJQsqaUBKTNV-1" vertex="1">
          <mxGeometry x="510" y="-380" width="160" height="194" as="geometry">
            <mxRectangle x="210" y="280" width="100" height="30" as="alternateBounds" />
          </mxGeometry>
        </mxCell>
        <mxCell id="KJHNV3jYbjOyEQVk-YHy-14" value="" style="line;strokeWidth=1;fillColor=none;align=left;verticalAlign=middle;spacingTop=-1;spacingLeft=3;spacingRight=3;rotatable=0;labelPosition=right;points=[];portConstraint=eastwest;strokeColor=inherit;" parent="KJHNV3jYbjOyEQVk-YHy-12" vertex="1">
          <mxGeometry y="26" width="160" height="8" as="geometry" />
        </mxCell>
        <mxCell id="KJHNV3jYbjOyEQVk-YHy-15" value="+&amp;nbsp;&lt;i&gt;invoke()&lt;br&gt;+&amp;nbsp;&lt;/i&gt;ainvoke()&lt;br&gt;+&amp;nbsp;batch()&lt;br&gt;+&amp;nbsp;abatch()&lt;br&gt;+&amp;nbsp;stream()&lt;br&gt;+&amp;nbsp;astream()&lt;br&gt;+&amp;nbsp;transform()&lt;br&gt;+&amp;nbsp;atransform()&lt;br&gt;+&amp;nbsp;input_schema()&lt;br&gt;+ output_schema()" style="text;strokeColor=none;fillColor=none;align=left;verticalAlign=top;spacingLeft=4;spacingRight=4;overflow=hidden;rotatable=0;points=[[0,0.5],[1,0.5]];portConstraint=eastwest;whiteSpace=wrap;html=1;" parent="KJHNV3jYbjOyEQVk-YHy-12" vertex="1">
          <mxGeometry y="34" width="160" height="160" as="geometry" />
        </mxCell>
        <mxCell id="KJHNV3jYbjOyEQVk-YHy-16" value="&lt;i&gt;Serializable&lt;/i&gt;" style="swimlane;fontStyle=1;align=center;verticalAlign=top;childLayout=stackLayout;horizontal=1;startSize=26;horizontalStack=0;resizeParent=1;resizeParentMax=0;resizeLast=0;collapsible=1;marginBottom=0;whiteSpace=wrap;html=1;" parent="WIyWlLk6GJQsqaUBKTNV-1" vertex="1">
          <mxGeometry x="260" y="-246" width="160" height="60" as="geometry">
            <mxRectangle x="210" y="280" width="100" height="30" as="alternateBounds" />
          </mxGeometry>
        </mxCell>
        <mxCell id="KJHNV3jYbjOyEQVk-YHy-18" value="" style="line;strokeWidth=1;fillColor=none;align=left;verticalAlign=middle;spacingTop=-1;spacingLeft=3;spacingRight=3;rotatable=0;labelPosition=right;points=[];portConstraint=eastwest;strokeColor=inherit;" parent="KJHNV3jYbjOyEQVk-YHy-16" vertex="1">
          <mxGeometry y="26" width="160" height="8" as="geometry" />
        </mxCell>
        <mxCell id="KJHNV3jYbjOyEQVk-YHy-19" value="+&amp;nbsp;to_json()" style="text;strokeColor=none;fillColor=none;align=left;verticalAlign=top;spacingLeft=4;spacingRight=4;overflow=hidden;rotatable=0;points=[[0,0.5],[1,0.5]];portConstraint=eastwest;whiteSpace=wrap;html=1;" parent="KJHNV3jYbjOyEQVk-YHy-16" vertex="1">
          <mxGeometry y="34" width="160" height="26" as="geometry" />
        </mxCell>
        <mxCell id="KJHNV3jYbjOyEQVk-YHy-117" style="edgeStyle=orthogonalEdgeStyle;rounded=0;orthogonalLoop=1;jettySize=auto;html=1;" parent="WIyWlLk6GJQsqaUBKTNV-1" source="KJHNV3jYbjOyEQVk-YHy-26" target="KJHNV3jYbjOyEQVk-YHy-4" edge="1">
          <mxGeometry relative="1" as="geometry">
            <Array as="points">
              <mxPoint x="1570" y="550" />
              <mxPoint x="1020" y="550" />
            </Array>
          </mxGeometry>
        </mxCell>
        <mxCell id="KJHNV3jYbjOyEQVk-YHy-26" value="&lt;i&gt;StringPromptTemplate&lt;/i&gt;" style="swimlane;fontStyle=1;align=center;verticalAlign=top;childLayout=stackLayout;horizontal=1;startSize=26;horizontalStack=0;resizeParent=1;resizeParentMax=0;resizeLast=0;collapsible=1;marginBottom=0;whiteSpace=wrap;html=1;" parent="WIyWlLk6GJQsqaUBKTNV-1" vertex="1">
          <mxGeometry x="1500" y="730" width="160" height="60" as="geometry">
            <mxRectangle x="210" y="280" width="100" height="30" as="alternateBounds" />
          </mxGeometry>
        </mxCell>
        <mxCell id="KJHNV3jYbjOyEQVk-YHy-28" value="" style="line;strokeWidth=1;fillColor=none;align=left;verticalAlign=middle;spacingTop=-1;spacingLeft=3;spacingRight=3;rotatable=0;labelPosition=right;points=[];portConstraint=eastwest;strokeColor=inherit;" parent="KJHNV3jYbjOyEQVk-YHy-26" vertex="1">
          <mxGeometry y="26" width="160" height="8" as="geometry" />
        </mxCell>
        <mxCell id="KJHNV3jYbjOyEQVk-YHy-29" value="+&amp;nbsp;format_prompt()" style="text;strokeColor=none;fillColor=none;align=left;verticalAlign=top;spacingLeft=4;spacingRight=4;overflow=hidden;rotatable=0;points=[[0,0.5],[1,0.5]];portConstraint=eastwest;whiteSpace=wrap;html=1;" parent="KJHNV3jYbjOyEQVk-YHy-26" vertex="1">
          <mxGeometry y="34" width="160" height="26" as="geometry" />
        </mxCell>
        <mxCell id="KJHNV3jYbjOyEQVk-YHy-54" style="edgeStyle=orthogonalEdgeStyle;rounded=0;orthogonalLoop=1;jettySize=auto;html=1;" parent="WIyWlLk6GJQsqaUBKTNV-1" source="KJHNV3jYbjOyEQVk-YHy-31" target="KJHNV3jYbjOyEQVk-YHy-26" edge="1">
          <mxGeometry relative="1" as="geometry">
            <Array as="points">
              <mxPoint x="1305" y="930" />
              <mxPoint x="1570" y="930" />
            </Array>
          </mxGeometry>
        </mxCell>
        <mxCell id="KJHNV3jYbjOyEQVk-YHy-31" value="PromptTemplate" style="swimlane;fontStyle=1;align=center;verticalAlign=top;childLayout=stackLayout;horizontal=1;startSize=26;horizontalStack=0;resizeParent=1;resizeParentMax=0;resizeLast=0;collapsible=1;marginBottom=0;whiteSpace=wrap;html=1;" parent="WIyWlLk6GJQsqaUBKTNV-1" vertex="1">
          <mxGeometry x="1225" y="1020" width="160" height="170" as="geometry">
            <mxRectangle x="210" y="280" width="100" height="30" as="alternateBounds" />
          </mxGeometry>
        </mxCell>
        <mxCell id="KJHNV3jYbjOyEQVk-YHy-32" value="+&amp;nbsp;input_variables:List[str]&lt;br&gt;+&amp;nbsp;template:str&lt;br&gt;+&amp;nbsp;template_format: str&amp;nbsp;" style="text;strokeColor=none;fillColor=none;align=left;verticalAlign=top;spacingLeft=4;spacingRight=4;overflow=hidden;rotatable=0;points=[[0,0.5],[1,0.5]];portConstraint=eastwest;whiteSpace=wrap;html=1;" parent="KJHNV3jYbjOyEQVk-YHy-31" vertex="1">
          <mxGeometry y="26" width="160" height="54" as="geometry" />
        </mxCell>
        <mxCell id="KJHNV3jYbjOyEQVk-YHy-33" value="" style="line;strokeWidth=1;fillColor=none;align=left;verticalAlign=middle;spacingTop=-1;spacingLeft=3;spacingRight=3;rotatable=0;labelPosition=right;points=[];portConstraint=eastwest;strokeColor=inherit;" parent="KJHNV3jYbjOyEQVk-YHy-31" vertex="1">
          <mxGeometry y="80" width="160" height="8" as="geometry" />
        </mxCell>
        <mxCell id="KJHNV3jYbjOyEQVk-YHy-34" value="+&amp;nbsp;__add__&lt;span style=&quot;background-color: initial;&quot;&gt;()&lt;/span&gt;&lt;br&gt;+&amp;nbsp;format&lt;span style=&quot;background-color: initial;&quot;&gt;()&lt;/span&gt;&lt;br&gt;+&amp;nbsp;from_examples()&lt;br&gt;+&amp;nbsp;from_file&lt;span style=&quot;background-color: initial;&quot;&gt;()&lt;/span&gt;&lt;br&gt;&lt;i&gt;+&amp;nbsp;&lt;/i&gt;from_template&lt;i style=&quot;background-color: initial;&quot;&gt;()&lt;/i&gt;" style="text;strokeColor=none;fillColor=none;align=left;verticalAlign=top;spacingLeft=4;spacingRight=4;overflow=hidden;rotatable=0;points=[[0,0.5],[1,0.5]];portConstraint=eastwest;whiteSpace=wrap;html=1;" parent="KJHNV3jYbjOyEQVk-YHy-31" vertex="1">
          <mxGeometry y="88" width="160" height="82" as="geometry" />
        </mxCell>
        <mxCell id="KJHNV3jYbjOyEQVk-YHy-116" style="edgeStyle=orthogonalEdgeStyle;rounded=0;orthogonalLoop=1;jettySize=auto;html=1;" parent="WIyWlLk6GJQsqaUBKTNV-1" source="KJHNV3jYbjOyEQVk-YHy-36" target="KJHNV3jYbjOyEQVk-YHy-4" edge="1">
          <mxGeometry relative="1" as="geometry" />
        </mxCell>
        <mxCell id="KJHNV3jYbjOyEQVk-YHy-36" value="PipelinePromptTemplate" style="swimlane;fontStyle=1;align=center;verticalAlign=top;childLayout=stackLayout;horizontal=1;startSize=26;horizontalStack=0;resizeParent=1;resizeParentMax=0;resizeLast=0;collapsible=1;marginBottom=0;whiteSpace=wrap;html=1;" parent="WIyWlLk6GJQsqaUBKTNV-1" vertex="1">
          <mxGeometry x="830" y="730" width="380" height="110" as="geometry">
            <mxRectangle x="210" y="280" width="100" height="30" as="alternateBounds" />
          </mxGeometry>
        </mxCell>
        <mxCell id="KJHNV3jYbjOyEQVk-YHy-37" value="+ pipeline_prompts: List[Tuple[str, BasePromptTemplate]]" style="text;strokeColor=none;fillColor=none;align=left;verticalAlign=top;spacingLeft=4;spacingRight=4;overflow=hidden;rotatable=0;points=[[0,0.5],[1,0.5]];portConstraint=eastwest;whiteSpace=wrap;html=1;" parent="KJHNV3jYbjOyEQVk-YHy-36" vertex="1">
          <mxGeometry y="26" width="380" height="34" as="geometry" />
        </mxCell>
        <mxCell id="KJHNV3jYbjOyEQVk-YHy-38" value="" style="line;strokeWidth=1;fillColor=none;align=left;verticalAlign=middle;spacingTop=-1;spacingLeft=3;spacingRight=3;rotatable=0;labelPosition=right;points=[];portConstraint=eastwest;strokeColor=inherit;" parent="KJHNV3jYbjOyEQVk-YHy-36" vertex="1">
          <mxGeometry y="60" width="380" height="8" as="geometry" />
        </mxCell>
        <mxCell id="KJHNV3jYbjOyEQVk-YHy-39" value="+ format_prompt()&lt;br&gt;+&amp;nbsp;format()" style="text;strokeColor=none;fillColor=none;align=left;verticalAlign=top;spacingLeft=4;spacingRight=4;overflow=hidden;rotatable=0;points=[[0,0.5],[1,0.5]];portConstraint=eastwest;whiteSpace=wrap;html=1;" parent="KJHNV3jYbjOyEQVk-YHy-36" vertex="1">
          <mxGeometry y="68" width="380" height="42" as="geometry" />
        </mxCell>
        <mxCell id="KJHNV3jYbjOyEQVk-YHy-119" style="edgeStyle=orthogonalEdgeStyle;rounded=0;orthogonalLoop=1;jettySize=auto;html=1;" parent="WIyWlLk6GJQsqaUBKTNV-1" source="KJHNV3jYbjOyEQVk-YHy-41" edge="1">
          <mxGeometry relative="1" as="geometry">
            <mxPoint x="1570" y="780" as="targetPoint" />
          </mxGeometry>
        </mxCell>
        <mxCell id="KJHNV3jYbjOyEQVk-YHy-41" value="FewShotPromptWithTemplates" style="swimlane;fontStyle=1;align=center;verticalAlign=top;childLayout=stackLayout;horizontal=1;startSize=26;horizontalStack=0;resizeParent=1;resizeParentMax=0;resizeLast=0;collapsible=1;marginBottom=0;whiteSpace=wrap;html=1;" parent="WIyWlLk6GJQsqaUBKTNV-1" vertex="1">
          <mxGeometry x="1465" y="1020" width="210" height="130" as="geometry">
            <mxRectangle x="210" y="280" width="100" height="30" as="alternateBounds" />
          </mxGeometry>
        </mxCell>
        <mxCell id="KJHNV3jYbjOyEQVk-YHy-42" value="+&amp;nbsp;example_prompt: PromptTemplate&lt;br&gt;+&amp;nbsp;input_variables:List[str]&lt;br&gt;+&amp;nbsp;template_format&lt;span style=&quot;background-color: initial;&quot;&gt;: str&amp;nbsp;&lt;/span&gt;" style="text;strokeColor=none;fillColor=none;align=left;verticalAlign=top;spacingLeft=4;spacingRight=4;overflow=hidden;rotatable=0;points=[[0,0.5],[1,0.5]];portConstraint=eastwest;whiteSpace=wrap;html=1;" parent="KJHNV3jYbjOyEQVk-YHy-41" vertex="1">
          <mxGeometry y="26" width="210" height="54" as="geometry" />
        </mxCell>
        <mxCell id="KJHNV3jYbjOyEQVk-YHy-43" value="" style="line;strokeWidth=1;fillColor=none;align=left;verticalAlign=middle;spacingTop=-1;spacingLeft=3;spacingRight=3;rotatable=0;labelPosition=right;points=[];portConstraint=eastwest;strokeColor=inherit;" parent="KJHNV3jYbjOyEQVk-YHy-41" vertex="1">
          <mxGeometry y="80" width="210" height="8" as="geometry" />
        </mxCell>
        <mxCell id="KJHNV3jYbjOyEQVk-YHy-44" value="+&amp;nbsp;format&lt;span style=&quot;background-color: initial;&quot;&gt;()&lt;/span&gt;&lt;br&gt;+ sava()" style="text;strokeColor=none;fillColor=none;align=left;verticalAlign=top;spacingLeft=4;spacingRight=4;overflow=hidden;rotatable=0;points=[[0,0.5],[1,0.5]];portConstraint=eastwest;whiteSpace=wrap;html=1;" parent="KJHNV3jYbjOyEQVk-YHy-41" vertex="1">
          <mxGeometry y="88" width="210" height="42" as="geometry" />
        </mxCell>
        <mxCell id="KJHNV3jYbjOyEQVk-YHy-55" style="edgeStyle=orthogonalEdgeStyle;rounded=0;orthogonalLoop=1;jettySize=auto;html=1;" parent="WIyWlLk6GJQsqaUBKTNV-1" source="KJHNV3jYbjOyEQVk-YHy-47" target="KJHNV3jYbjOyEQVk-YHy-26" edge="1">
          <mxGeometry relative="1" as="geometry">
            <Array as="points">
              <mxPoint x="1810" y="930" />
              <mxPoint x="1570" y="930" />
            </Array>
          </mxGeometry>
        </mxCell>
        <mxCell id="KJHNV3jYbjOyEQVk-YHy-47" value="FewShotPromptTemplate" style="swimlane;fontStyle=1;align=center;verticalAlign=top;childLayout=stackLayout;horizontal=1;startSize=26;horizontalStack=0;resizeParent=1;resizeParentMax=0;resizeLast=0;collapsible=1;marginBottom=0;whiteSpace=wrap;html=1;" parent="WIyWlLk6GJQsqaUBKTNV-1" vertex="1">
          <mxGeometry x="1705" y="1020" width="210" height="130" as="geometry">
            <mxRectangle x="210" y="280" width="100" height="30" as="alternateBounds" />
          </mxGeometry>
        </mxCell>
        <mxCell id="KJHNV3jYbjOyEQVk-YHy-48" value="+&amp;nbsp;example_prompt: PromptTemplate&lt;br&gt;+&amp;nbsp;input_variables:List[str]&lt;br&gt;+&amp;nbsp;template_format&lt;span style=&quot;background-color: initial;&quot;&gt;: str&amp;nbsp;&lt;/span&gt;" style="text;strokeColor=none;fillColor=none;align=left;verticalAlign=top;spacingLeft=4;spacingRight=4;overflow=hidden;rotatable=0;points=[[0,0.5],[1,0.5]];portConstraint=eastwest;whiteSpace=wrap;html=1;" parent="KJHNV3jYbjOyEQVk-YHy-47" vertex="1">
          <mxGeometry y="26" width="210" height="54" as="geometry" />
        </mxCell>
        <mxCell id="KJHNV3jYbjOyEQVk-YHy-49" value="" style="line;strokeWidth=1;fillColor=none;align=left;verticalAlign=middle;spacingTop=-1;spacingLeft=3;spacingRight=3;rotatable=0;labelPosition=right;points=[];portConstraint=eastwest;strokeColor=inherit;" parent="KJHNV3jYbjOyEQVk-YHy-47" vertex="1">
          <mxGeometry y="80" width="210" height="8" as="geometry" />
        </mxCell>
        <mxCell id="KJHNV3jYbjOyEQVk-YHy-50" value="+&amp;nbsp;format&lt;span style=&quot;background-color: initial;&quot;&gt;()&lt;/span&gt;&lt;br&gt;+ sava()" style="text;strokeColor=none;fillColor=none;align=left;verticalAlign=top;spacingLeft=4;spacingRight=4;overflow=hidden;rotatable=0;points=[[0,0.5],[1,0.5]];portConstraint=eastwest;whiteSpace=wrap;html=1;" parent="KJHNV3jYbjOyEQVk-YHy-47" vertex="1">
          <mxGeometry y="88" width="210" height="42" as="geometry" />
        </mxCell>
        <mxCell id="KJHNV3jYbjOyEQVk-YHy-60" style="edgeStyle=orthogonalEdgeStyle;rounded=0;orthogonalLoop=1;jettySize=auto;html=1;" parent="WIyWlLk6GJQsqaUBKTNV-1" source="KJHNV3jYbjOyEQVk-YHy-56" target="KJHNV3jYbjOyEQVk-YHy-16" edge="1">
          <mxGeometry relative="1" as="geometry">
            <Array as="points">
              <mxPoint x="-470" y="-220" />
            </Array>
          </mxGeometry>
        </mxCell>
        <mxCell id="KJHNV3jYbjOyEQVk-YHy-56" value="&lt;i&gt;BaseMessagePromptTemplate&lt;/i&gt;" style="swimlane;fontStyle=1;align=center;verticalAlign=top;childLayout=stackLayout;horizontal=1;startSize=26;horizontalStack=0;resizeParent=1;resizeParentMax=0;resizeLast=0;collapsible=1;marginBottom=0;whiteSpace=wrap;html=1;" parent="WIyWlLk6GJQsqaUBKTNV-1" vertex="1">
          <mxGeometry x="-570" y="110" width="200" height="80" as="geometry">
            <mxRectangle x="210" y="280" width="100" height="30" as="alternateBounds" />
          </mxGeometry>
        </mxCell>
        <mxCell id="KJHNV3jYbjOyEQVk-YHy-58" value="" style="line;strokeWidth=1;fillColor=none;align=left;verticalAlign=middle;spacingTop=-1;spacingLeft=3;spacingRight=3;rotatable=0;labelPosition=right;points=[];portConstraint=eastwest;strokeColor=inherit;" parent="KJHNV3jYbjOyEQVk-YHy-56" vertex="1">
          <mxGeometry y="26" width="200" height="8" as="geometry" />
        </mxCell>
        <mxCell id="KJHNV3jYbjOyEQVk-YHy-59" value="&lt;i&gt;+format_messages&lt;span style=&quot;background-color: initial;&quot;&gt;()&lt;/span&gt;&lt;br&gt;+&amp;nbsp;input_variables&lt;span style=&quot;background-color: initial;&quot;&gt;()&lt;/span&gt;&lt;/i&gt;" style="text;strokeColor=none;fillColor=none;align=left;verticalAlign=top;spacingLeft=4;spacingRight=4;overflow=hidden;rotatable=0;points=[[0,0.5],[1,0.5]];portConstraint=eastwest;whiteSpace=wrap;html=1;" parent="KJHNV3jYbjOyEQVk-YHy-56" vertex="1">
          <mxGeometry y="34" width="200" height="46" as="geometry" />
        </mxCell>
        <mxCell id="KJHNV3jYbjOyEQVk-YHy-65" style="edgeStyle=orthogonalEdgeStyle;rounded=0;orthogonalLoop=1;jettySize=auto;html=1;" parent="WIyWlLk6GJQsqaUBKTNV-1" source="KJHNV3jYbjOyEQVk-YHy-61" target="KJHNV3jYbjOyEQVk-YHy-56" edge="1">
          <mxGeometry relative="1" as="geometry" />
        </mxCell>
        <mxCell id="KJHNV3jYbjOyEQVk-YHy-61" value="MessagesPlaceholder" style="swimlane;fontStyle=1;align=center;verticalAlign=top;childLayout=stackLayout;horizontal=1;startSize=26;horizontalStack=0;resizeParent=1;resizeParentMax=0;resizeLast=0;collapsible=1;marginBottom=0;whiteSpace=wrap;html=1;" parent="WIyWlLk6GJQsqaUBKTNV-1" vertex="1">
          <mxGeometry x="-390" y="290" width="160" height="100" as="geometry">
            <mxRectangle x="210" y="280" width="100" height="30" as="alternateBounds" />
          </mxGeometry>
        </mxCell>
        <mxCell id="KJHNV3jYbjOyEQVk-YHy-62" value="+&amp;nbsp;variable_name" style="text;strokeColor=none;fillColor=none;align=left;verticalAlign=top;spacingLeft=4;spacingRight=4;overflow=hidden;rotatable=0;points=[[0,0.5],[1,0.5]];portConstraint=eastwest;whiteSpace=wrap;html=1;" parent="KJHNV3jYbjOyEQVk-YHy-61" vertex="1">
          <mxGeometry y="26" width="160" height="24" as="geometry" />
        </mxCell>
        <mxCell id="KJHNV3jYbjOyEQVk-YHy-63" value="" style="line;strokeWidth=1;fillColor=none;align=left;verticalAlign=middle;spacingTop=-1;spacingLeft=3;spacingRight=3;rotatable=0;labelPosition=right;points=[];portConstraint=eastwest;strokeColor=inherit;" parent="KJHNV3jYbjOyEQVk-YHy-61" vertex="1">
          <mxGeometry y="50" width="160" height="8" as="geometry" />
        </mxCell>
        <mxCell id="KJHNV3jYbjOyEQVk-YHy-64" value="+&amp;nbsp;format_messages&lt;span style=&quot;background-color: initial;&quot;&gt;()&lt;/span&gt;&lt;br&gt;+&amp;nbsp;input_variables&lt;span style=&quot;background-color: initial;&quot;&gt;()&lt;/span&gt;" style="text;strokeColor=none;fillColor=none;align=left;verticalAlign=top;spacingLeft=4;spacingRight=4;overflow=hidden;rotatable=0;points=[[0,0.5],[1,0.5]];portConstraint=eastwest;whiteSpace=wrap;html=1;" parent="KJHNV3jYbjOyEQVk-YHy-61" vertex="1">
          <mxGeometry y="58" width="160" height="42" as="geometry" />
        </mxCell>
        <mxCell id="KJHNV3jYbjOyEQVk-YHy-70" style="edgeStyle=orthogonalEdgeStyle;rounded=0;orthogonalLoop=1;jettySize=auto;html=1;" parent="WIyWlLk6GJQsqaUBKTNV-1" source="KJHNV3jYbjOyEQVk-YHy-66" target="KJHNV3jYbjOyEQVk-YHy-56" edge="1">
          <mxGeometry relative="1" as="geometry" />
        </mxCell>
        <mxCell id="KJHNV3jYbjOyEQVk-YHy-66" value="BaseStringMessagePromptTemplate" style="swimlane;fontStyle=3;align=center;verticalAlign=top;childLayout=stackLayout;horizontal=1;startSize=26;horizontalStack=0;resizeParent=1;resizeParentMax=0;resizeLast=0;collapsible=1;marginBottom=0;whiteSpace=wrap;html=1;" parent="WIyWlLk6GJQsqaUBKTNV-1" vertex="1">
          <mxGeometry x="-740" y="290" width="240" height="150" as="geometry">
            <mxRectangle x="210" y="280" width="100" height="30" as="alternateBounds" />
          </mxGeometry>
        </mxCell>
        <mxCell id="KJHNV3jYbjOyEQVk-YHy-67" value="+ prompt: StringPromptTemplate" style="text;strokeColor=none;fillColor=none;align=left;verticalAlign=top;spacingLeft=4;spacingRight=4;overflow=hidden;rotatable=0;points=[[0,0.5],[1,0.5]];portConstraint=eastwest;whiteSpace=wrap;html=1;" parent="KJHNV3jYbjOyEQVk-YHy-66" vertex="1">
          <mxGeometry y="26" width="240" height="24" as="geometry" />
        </mxCell>
        <mxCell id="KJHNV3jYbjOyEQVk-YHy-68" value="" style="line;strokeWidth=1;fillColor=none;align=left;verticalAlign=middle;spacingTop=-1;spacingLeft=3;spacingRight=3;rotatable=0;labelPosition=right;points=[];portConstraint=eastwest;strokeColor=inherit;" parent="KJHNV3jYbjOyEQVk-YHy-66" vertex="1">
          <mxGeometry y="50" width="240" height="8" as="geometry" />
        </mxCell>
        <mxCell id="KJHNV3jYbjOyEQVk-YHy-69" value="+&amp;nbsp;from_template&lt;span style=&quot;background-color: initial;&quot;&gt;()&lt;/span&gt;&lt;br&gt;+&amp;nbsp;from_template_file&lt;span style=&quot;background-color: initial;&quot;&gt;()&lt;/span&gt;&lt;br&gt;+&amp;nbsp;format_messages&lt;span style=&quot;background-color: initial;&quot;&gt;()&lt;/span&gt;&lt;br&gt;+&amp;nbsp;input_variables&lt;span style=&quot;background-color: initial;&quot;&gt;()&lt;/span&gt;&lt;i&gt;&lt;br&gt;+ format()&lt;/i&gt;" style="text;strokeColor=none;fillColor=none;align=left;verticalAlign=top;spacingLeft=4;spacingRight=4;overflow=hidden;rotatable=0;points=[[0,0.5],[1,0.5]];portConstraint=eastwest;whiteSpace=wrap;html=1;" parent="KJHNV3jYbjOyEQVk-YHy-66" vertex="1">
          <mxGeometry y="58" width="240" height="92" as="geometry" />
        </mxCell>
        <mxCell id="KJHNV3jYbjOyEQVk-YHy-92" style="edgeStyle=orthogonalEdgeStyle;rounded=0;orthogonalLoop=1;jettySize=auto;html=1;" parent="WIyWlLk6GJQsqaUBKTNV-1" source="KJHNV3jYbjOyEQVk-YHy-71" target="KJHNV3jYbjOyEQVk-YHy-66" edge="1">
          <mxGeometry relative="1" as="geometry">
            <Array as="points">
              <mxPoint x="-250" y="700" />
              <mxPoint x="-620" y="700" />
            </Array>
          </mxGeometry>
        </mxCell>
        <mxCell id="KJHNV3jYbjOyEQVk-YHy-71" value="ChatMessagePromptTemplate" style="swimlane;fontStyle=1;align=center;verticalAlign=top;childLayout=stackLayout;horizontal=1;startSize=26;horizontalStack=0;resizeParent=1;resizeParentMax=0;resizeLast=0;collapsible=1;marginBottom=0;whiteSpace=wrap;html=1;" parent="WIyWlLk6GJQsqaUBKTNV-1" vertex="1">
          <mxGeometry x="-370" y="940" width="240" height="70" as="geometry">
            <mxRectangle x="210" y="280" width="100" height="30" as="alternateBounds" />
          </mxGeometry>
        </mxCell>
        <mxCell id="KJHNV3jYbjOyEQVk-YHy-73" value="" style="line;strokeWidth=1;fillColor=none;align=left;verticalAlign=middle;spacingTop=-1;spacingLeft=3;spacingRight=3;rotatable=0;labelPosition=right;points=[];portConstraint=eastwest;strokeColor=inherit;" parent="KJHNV3jYbjOyEQVk-YHy-71" vertex="1">
          <mxGeometry y="26" width="240" height="8" as="geometry" />
        </mxCell>
        <mxCell id="KJHNV3jYbjOyEQVk-YHy-74" value="&lt;span&gt;+ format()&lt;/span&gt;" style="text;strokeColor=none;fillColor=none;align=left;verticalAlign=top;spacingLeft=4;spacingRight=4;overflow=hidden;rotatable=0;points=[[0,0.5],[1,0.5]];portConstraint=eastwest;whiteSpace=wrap;html=1;fontStyle=0" parent="KJHNV3jYbjOyEQVk-YHy-71" vertex="1">
          <mxGeometry y="34" width="240" height="36" as="geometry" />
        </mxCell>
        <mxCell id="KJHNV3jYbjOyEQVk-YHy-91" style="edgeStyle=orthogonalEdgeStyle;rounded=0;orthogonalLoop=1;jettySize=auto;html=1;" parent="WIyWlLk6GJQsqaUBKTNV-1" source="KJHNV3jYbjOyEQVk-YHy-76" target="KJHNV3jYbjOyEQVk-YHy-66" edge="1">
          <mxGeometry relative="1" as="geometry">
            <Array as="points">
              <mxPoint x="-550" y="700" />
              <mxPoint x="-620" y="700" />
            </Array>
          </mxGeometry>
        </mxCell>
        <mxCell id="KJHNV3jYbjOyEQVk-YHy-76" value="HumanMessagePromptTemplate" style="swimlane;fontStyle=1;align=center;verticalAlign=top;childLayout=stackLayout;horizontal=1;startSize=26;horizontalStack=0;resizeParent=1;resizeParentMax=0;resizeLast=0;collapsible=1;marginBottom=0;whiteSpace=wrap;html=1;" parent="WIyWlLk6GJQsqaUBKTNV-1" vertex="1">
          <mxGeometry x="-670" y="940" width="240" height="70" as="geometry">
            <mxRectangle x="210" y="280" width="100" height="30" as="alternateBounds" />
          </mxGeometry>
        </mxCell>
        <mxCell id="KJHNV3jYbjOyEQVk-YHy-77" value="" style="line;strokeWidth=1;fillColor=none;align=left;verticalAlign=middle;spacingTop=-1;spacingLeft=3;spacingRight=3;rotatable=0;labelPosition=right;points=[];portConstraint=eastwest;strokeColor=inherit;" parent="KJHNV3jYbjOyEQVk-YHy-76" vertex="1">
          <mxGeometry y="26" width="240" height="8" as="geometry" />
        </mxCell>
        <mxCell id="KJHNV3jYbjOyEQVk-YHy-78" value="&lt;span&gt;+ format()&lt;/span&gt;" style="text;strokeColor=none;fillColor=none;align=left;verticalAlign=top;spacingLeft=4;spacingRight=4;overflow=hidden;rotatable=0;points=[[0,0.5],[1,0.5]];portConstraint=eastwest;whiteSpace=wrap;html=1;fontStyle=0" parent="KJHNV3jYbjOyEQVk-YHy-76" vertex="1">
          <mxGeometry y="34" width="240" height="36" as="geometry" />
        </mxCell>
        <mxCell id="KJHNV3jYbjOyEQVk-YHy-89" style="edgeStyle=orthogonalEdgeStyle;rounded=0;orthogonalLoop=1;jettySize=auto;html=1;" parent="WIyWlLk6GJQsqaUBKTNV-1" source="KJHNV3jYbjOyEQVk-YHy-80" target="KJHNV3jYbjOyEQVk-YHy-66" edge="1">
          <mxGeometry relative="1" as="geometry">
            <Array as="points">
              <mxPoint x="-830" y="700" />
              <mxPoint x="-620" y="700" />
            </Array>
          </mxGeometry>
        </mxCell>
        <mxCell id="KJHNV3jYbjOyEQVk-YHy-80" value="AIMessagePromptTemplate" style="swimlane;fontStyle=1;align=center;verticalAlign=top;childLayout=stackLayout;horizontal=1;startSize=26;horizontalStack=0;resizeParent=1;resizeParentMax=0;resizeLast=0;collapsible=1;marginBottom=0;whiteSpace=wrap;html=1;" parent="WIyWlLk6GJQsqaUBKTNV-1" vertex="1">
          <mxGeometry x="-950" y="940" width="240" height="70" as="geometry">
            <mxRectangle x="210" y="280" width="100" height="30" as="alternateBounds" />
          </mxGeometry>
        </mxCell>
        <mxCell id="KJHNV3jYbjOyEQVk-YHy-81" value="" style="line;strokeWidth=1;fillColor=none;align=left;verticalAlign=middle;spacingTop=-1;spacingLeft=3;spacingRight=3;rotatable=0;labelPosition=right;points=[];portConstraint=eastwest;strokeColor=inherit;" parent="KJHNV3jYbjOyEQVk-YHy-80" vertex="1">
          <mxGeometry y="26" width="240" height="8" as="geometry" />
        </mxCell>
        <mxCell id="KJHNV3jYbjOyEQVk-YHy-82" value="&lt;span&gt;+ format()&lt;/span&gt;" style="text;strokeColor=none;fillColor=none;align=left;verticalAlign=top;spacingLeft=4;spacingRight=4;overflow=hidden;rotatable=0;points=[[0,0.5],[1,0.5]];portConstraint=eastwest;whiteSpace=wrap;html=1;fontStyle=0" parent="KJHNV3jYbjOyEQVk-YHy-80" vertex="1">
          <mxGeometry y="34" width="240" height="36" as="geometry" />
        </mxCell>
        <mxCell id="KJHNV3jYbjOyEQVk-YHy-88" style="edgeStyle=orthogonalEdgeStyle;rounded=0;orthogonalLoop=1;jettySize=auto;html=1;" parent="WIyWlLk6GJQsqaUBKTNV-1" source="KJHNV3jYbjOyEQVk-YHy-83" target="KJHNV3jYbjOyEQVk-YHy-66" edge="1">
          <mxGeometry relative="1" as="geometry">
            <Array as="points">
              <mxPoint x="-1120" y="700" />
              <mxPoint x="-620" y="700" />
            </Array>
          </mxGeometry>
        </mxCell>
        <mxCell id="KJHNV3jYbjOyEQVk-YHy-83" value="SystemMessagePromptTemplate" style="swimlane;fontStyle=1;align=center;verticalAlign=top;childLayout=stackLayout;horizontal=1;startSize=26;horizontalStack=0;resizeParent=1;resizeParentMax=0;resizeLast=0;collapsible=1;marginBottom=0;whiteSpace=wrap;html=1;" parent="WIyWlLk6GJQsqaUBKTNV-1" vertex="1">
          <mxGeometry x="-1240" y="940" width="240" height="70" as="geometry">
            <mxRectangle x="210" y="280" width="100" height="30" as="alternateBounds" />
          </mxGeometry>
        </mxCell>
        <mxCell id="KJHNV3jYbjOyEQVk-YHy-84" value="" style="line;strokeWidth=1;fillColor=none;align=left;verticalAlign=middle;spacingTop=-1;spacingLeft=3;spacingRight=3;rotatable=0;labelPosition=right;points=[];portConstraint=eastwest;strokeColor=inherit;" parent="KJHNV3jYbjOyEQVk-YHy-83" vertex="1">
          <mxGeometry y="26" width="240" height="8" as="geometry" />
        </mxCell>
        <mxCell id="KJHNV3jYbjOyEQVk-YHy-85" value="&lt;span&gt;+ format()&lt;/span&gt;" style="text;strokeColor=none;fillColor=none;align=left;verticalAlign=top;spacingLeft=4;spacingRight=4;overflow=hidden;rotatable=0;points=[[0,0.5],[1,0.5]];portConstraint=eastwest;whiteSpace=wrap;html=1;fontStyle=0" parent="KJHNV3jYbjOyEQVk-YHy-83" vertex="1">
          <mxGeometry y="34" width="240" height="36" as="geometry" />
        </mxCell>
        <mxCell id="KJHNV3jYbjOyEQVk-YHy-118" style="edgeStyle=orthogonalEdgeStyle;rounded=0;orthogonalLoop=1;jettySize=auto;html=1;" parent="WIyWlLk6GJQsqaUBKTNV-1" source="KJHNV3jYbjOyEQVk-YHy-93" target="KJHNV3jYbjOyEQVk-YHy-4" edge="1">
          <mxGeometry relative="1" as="geometry">
            <Array as="points">
              <mxPoint x="460" y="550" />
              <mxPoint x="1020" y="550" />
            </Array>
          </mxGeometry>
        </mxCell>
        <mxCell id="KJHNV3jYbjOyEQVk-YHy-93" value="BaseChatPromptTemplate" style="swimlane;fontStyle=1;align=center;verticalAlign=top;childLayout=stackLayout;horizontal=1;startSize=26;horizontalStack=0;resizeParent=1;resizeParentMax=0;resizeLast=0;collapsible=1;marginBottom=0;whiteSpace=wrap;html=1;" parent="WIyWlLk6GJQsqaUBKTNV-1" vertex="1">
          <mxGeometry x="370" y="730" width="180" height="76" as="geometry">
            <mxRectangle x="210" y="280" width="100" height="30" as="alternateBounds" />
          </mxGeometry>
        </mxCell>
        <mxCell id="KJHNV3jYbjOyEQVk-YHy-95" value="" style="line;strokeWidth=1;fillColor=none;align=left;verticalAlign=middle;spacingTop=-1;spacingLeft=3;spacingRight=3;rotatable=0;labelPosition=right;points=[];portConstraint=eastwest;strokeColor=inherit;" parent="KJHNV3jYbjOyEQVk-YHy-93" vertex="1">
          <mxGeometry y="26" width="180" height="8" as="geometry" />
        </mxCell>
        <mxCell id="KJHNV3jYbjOyEQVk-YHy-96" value="+&amp;nbsp;format()&lt;br&gt;+&lt;i&gt;&amp;nbsp;format_messages()&lt;/i&gt;" style="text;strokeColor=none;fillColor=none;align=left;verticalAlign=top;spacingLeft=4;spacingRight=4;overflow=hidden;rotatable=0;points=[[0,0.5],[1,0.5]];portConstraint=eastwest;whiteSpace=wrap;html=1;" parent="KJHNV3jYbjOyEQVk-YHy-93" vertex="1">
          <mxGeometry y="34" width="180" height="42" as="geometry" />
        </mxCell>
        <mxCell id="KJHNV3jYbjOyEQVk-YHy-106" style="edgeStyle=orthogonalEdgeStyle;rounded=0;orthogonalLoop=1;jettySize=auto;html=1;" parent="WIyWlLk6GJQsqaUBKTNV-1" source="KJHNV3jYbjOyEQVk-YHy-102" target="KJHNV3jYbjOyEQVk-YHy-93" edge="1">
          <mxGeometry relative="1" as="geometry" />
        </mxCell>
        <mxCell id="KJHNV3jYbjOyEQVk-YHy-102" value="ChatPromptTemplate" style="swimlane;fontStyle=1;align=center;verticalAlign=top;childLayout=stackLayout;horizontal=1;startSize=26;horizontalStack=0;resizeParent=1;resizeParentMax=0;resizeLast=0;collapsible=1;marginBottom=0;whiteSpace=wrap;html=1;" parent="WIyWlLk6GJQsqaUBKTNV-1" vertex="1">
          <mxGeometry x="150" y="1020" width="230" height="180" as="geometry">
            <mxRectangle x="210" y="280" width="100" height="30" as="alternateBounds" />
          </mxGeometry>
        </mxCell>
        <mxCell id="KJHNV3jYbjOyEQVk-YHy-103" value="+ input_variables: List[str]&amp;nbsp;&lt;br&gt;+&amp;nbsp;messages: List[MessageLike]" style="text;strokeColor=none;fillColor=none;align=left;verticalAlign=top;spacingLeft=4;spacingRight=4;overflow=hidden;rotatable=0;points=[[0,0.5],[1,0.5]];portConstraint=eastwest;whiteSpace=wrap;html=1;" parent="KJHNV3jYbjOyEQVk-YHy-102" vertex="1">
          <mxGeometry y="26" width="230" height="34" as="geometry" />
        </mxCell>
        <mxCell id="KJHNV3jYbjOyEQVk-YHy-104" value="" style="line;strokeWidth=1;fillColor=none;align=left;verticalAlign=middle;spacingTop=-1;spacingLeft=3;spacingRight=3;rotatable=0;labelPosition=right;points=[];portConstraint=eastwest;strokeColor=inherit;" parent="KJHNV3jYbjOyEQVk-YHy-102" vertex="1">
          <mxGeometry y="60" width="230" height="8" as="geometry" />
        </mxCell>
        <mxCell id="KJHNV3jYbjOyEQVk-YHy-105" value="+&amp;nbsp;__add__()&lt;br&gt;+&amp;nbsp;from_template()&lt;br&gt;+&amp;nbsp;from_messages&lt;b&gt;()&lt;br&gt;+&amp;nbsp;&lt;/b&gt;format()&lt;br&gt;+&amp;nbsp;format_messages()&lt;br&gt;+&amp;nbsp;save()" style="text;strokeColor=none;fillColor=none;align=left;verticalAlign=top;spacingLeft=4;spacingRight=4;overflow=hidden;rotatable=0;points=[[0,0.5],[1,0.5]];portConstraint=eastwest;whiteSpace=wrap;html=1;" parent="KJHNV3jYbjOyEQVk-YHy-102" vertex="1">
          <mxGeometry y="68" width="230" height="112" as="geometry" />
        </mxCell>
        <mxCell id="KJHNV3jYbjOyEQVk-YHy-115" style="edgeStyle=orthogonalEdgeStyle;rounded=0;orthogonalLoop=1;jettySize=auto;html=1;" parent="WIyWlLk6GJQsqaUBKTNV-1" source="KJHNV3jYbjOyEQVk-YHy-111" target="KJHNV3jYbjOyEQVk-YHy-93" edge="1">
          <mxGeometry relative="1" as="geometry">
            <Array as="points">
              <mxPoint x="650" y="910" />
              <mxPoint x="460" y="910" />
            </Array>
          </mxGeometry>
        </mxCell>
        <mxCell id="KJHNV3jYbjOyEQVk-YHy-111" value="FewShotChatMessagePromptTemplate" style="swimlane;fontStyle=1;align=center;verticalAlign=top;childLayout=stackLayout;horizontal=1;startSize=26;horizontalStack=0;resizeParent=1;resizeParentMax=0;resizeLast=0;collapsible=1;marginBottom=0;whiteSpace=wrap;html=1;" parent="WIyWlLk6GJQsqaUBKTNV-1" vertex="1">
          <mxGeometry x="520" y="1020" width="280" height="76" as="geometry">
            <mxRectangle x="210" y="280" width="100" height="30" as="alternateBounds" />
          </mxGeometry>
        </mxCell>
        <mxCell id="KJHNV3jYbjOyEQVk-YHy-113" value="" style="line;strokeWidth=1;fillColor=none;align=left;verticalAlign=middle;spacingTop=-1;spacingLeft=3;spacingRight=3;rotatable=0;labelPosition=right;points=[];portConstraint=eastwest;strokeColor=inherit;" parent="KJHNV3jYbjOyEQVk-YHy-111" vertex="1">
          <mxGeometry y="26" width="280" height="8" as="geometry" />
        </mxCell>
        <mxCell id="KJHNV3jYbjOyEQVk-YHy-114" value="+&amp;nbsp;format&lt;span style=&quot;background-color: initial;&quot;&gt;()&lt;/span&gt;&lt;br&gt;+&amp;nbsp;format_messages&lt;span style=&quot;background-color: initial;&quot;&gt;()&lt;/span&gt;" style="text;strokeColor=none;fillColor=none;align=left;verticalAlign=top;spacingLeft=4;spacingRight=4;overflow=hidden;rotatable=0;points=[[0,0.5],[1,0.5]];portConstraint=eastwest;whiteSpace=wrap;html=1;" parent="KJHNV3jYbjOyEQVk-YHy-111" vertex="1">
          <mxGeometry y="34" width="280" height="42" as="geometry" />
        </mxCell>
        <mxCell id="gPTQpDccV7jAP6fVuNsv-3" style="edgeStyle=orthogonalEdgeStyle;curved=1;rounded=0;orthogonalLoop=1;jettySize=auto;html=1;elbow=vertical;" edge="1" parent="WIyWlLk6GJQsqaUBKTNV-1" source="gPTQpDccV7jAP6fVuNsv-0" target="KJHNV3jYbjOyEQVk-YHy-16">
          <mxGeometry relative="1" as="geometry" />
        </mxCell>
        <mxCell id="gPTQpDccV7jAP6fVuNsv-0" value="PromptValue" style="swimlane;fontStyle=3;align=center;verticalAlign=top;childLayout=stackLayout;horizontal=1;startSize=26;horizontalStack=0;resizeParent=1;resizeParentMax=0;resizeLast=0;collapsible=1;marginBottom=0;whiteSpace=wrap;html=1;" vertex="1" parent="WIyWlLk6GJQsqaUBKTNV-1">
          <mxGeometry x="237.5" y="-454" width="205" height="85" as="geometry">
            <mxRectangle x="210" y="280" width="100" height="30" as="alternateBounds" />
          </mxGeometry>
        </mxCell>
        <mxCell id="gPTQpDccV7jAP6fVuNsv-1" value="" style="line;strokeWidth=1;fillColor=none;align=left;verticalAlign=middle;spacingTop=-1;spacingLeft=3;spacingRight=3;rotatable=0;labelPosition=right;points=[];portConstraint=eastwest;strokeColor=inherit;" vertex="1" parent="gPTQpDccV7jAP6fVuNsv-0">
          <mxGeometry y="26" width="205" height="8" as="geometry" />
        </mxCell>
        <mxCell id="gPTQpDccV7jAP6fVuNsv-2" value="&lt;i&gt;+ to_string:str&lt;br&gt;+ to_messages:List[BaseMessage]&lt;br&gt;&lt;/i&gt;" style="text;strokeColor=none;fillColor=none;align=left;verticalAlign=top;spacingLeft=4;spacingRight=4;overflow=hidden;rotatable=0;points=[[0,0.5],[1,0.5]];portConstraint=eastwest;whiteSpace=wrap;html=1;" vertex="1" parent="gPTQpDccV7jAP6fVuNsv-0">
          <mxGeometry y="34" width="205" height="51" as="geometry" />
        </mxCell>
        <mxCell id="gPTQpDccV7jAP6fVuNsv-13" style="edgeStyle=orthogonalEdgeStyle;rounded=0;orthogonalLoop=1;jettySize=auto;html=1;elbow=vertical;" edge="1" parent="WIyWlLk6GJQsqaUBKTNV-1" source="gPTQpDccV7jAP6fVuNsv-4" target="gPTQpDccV7jAP6fVuNsv-0">
          <mxGeometry relative="1" as="geometry" />
        </mxCell>
        <mxCell id="gPTQpDccV7jAP6fVuNsv-4" value="&lt;span style=&quot;font-style: normal;&quot;&gt;StringPromptValue&lt;/span&gt;" style="swimlane;fontStyle=3;align=center;verticalAlign=top;childLayout=stackLayout;horizontal=1;startSize=26;horizontalStack=0;resizeParent=1;resizeParentMax=0;resizeLast=0;collapsible=1;marginBottom=0;whiteSpace=wrap;html=1;" vertex="1" parent="WIyWlLk6GJQsqaUBKTNV-1">
          <mxGeometry x="237.5" y="-735" width="205" height="85" as="geometry">
            <mxRectangle x="210" y="280" width="100" height="30" as="alternateBounds" />
          </mxGeometry>
        </mxCell>
        <mxCell id="gPTQpDccV7jAP6fVuNsv-5" value="" style="line;strokeWidth=1;fillColor=none;align=left;verticalAlign=middle;spacingTop=-1;spacingLeft=3;spacingRight=3;rotatable=0;labelPosition=right;points=[];portConstraint=eastwest;strokeColor=inherit;" vertex="1" parent="gPTQpDccV7jAP6fVuNsv-4">
          <mxGeometry y="26" width="205" height="8" as="geometry" />
        </mxCell>
        <mxCell id="gPTQpDccV7jAP6fVuNsv-6" value="+ to_string:str&lt;br&gt;+ to_messages:List[BaseMessage]" style="text;strokeColor=none;fillColor=none;align=left;verticalAlign=top;spacingLeft=4;spacingRight=4;overflow=hidden;rotatable=0;points=[[0,0.5],[1,0.5]];portConstraint=eastwest;whiteSpace=wrap;html=1;" vertex="1" parent="gPTQpDccV7jAP6fVuNsv-4">
          <mxGeometry y="34" width="205" height="51" as="geometry" />
        </mxCell>
        <mxCell id="gPTQpDccV7jAP6fVuNsv-14" style="edgeStyle=orthogonalEdgeStyle;rounded=0;orthogonalLoop=1;jettySize=auto;html=1;entryX=0.5;entryY=0;entryDx=0;entryDy=0;elbow=vertical;" edge="1" parent="WIyWlLk6GJQsqaUBKTNV-1" source="gPTQpDccV7jAP6fVuNsv-7" target="gPTQpDccV7jAP6fVuNsv-0">
          <mxGeometry relative="1" as="geometry">
            <Array as="points">
              <mxPoint x="-11" y="-553" />
              <mxPoint x="340" y="-553" />
            </Array>
          </mxGeometry>
        </mxCell>
        <mxCell id="gPTQpDccV7jAP6fVuNsv-7" value="ChatPromptValue" style="swimlane;fontStyle=1;align=center;verticalAlign=top;childLayout=stackLayout;horizontal=1;startSize=26;horizontalStack=0;resizeParent=1;resizeParentMax=0;resizeLast=0;collapsible=1;marginBottom=0;whiteSpace=wrap;html=1;" vertex="1" parent="WIyWlLk6GJQsqaUBKTNV-1">
          <mxGeometry x="-114" y="-735" width="205" height="85" as="geometry">
            <mxRectangle x="210" y="280" width="100" height="30" as="alternateBounds" />
          </mxGeometry>
        </mxCell>
        <mxCell id="gPTQpDccV7jAP6fVuNsv-8" value="" style="line;strokeWidth=1;fillColor=none;align=left;verticalAlign=middle;spacingTop=-1;spacingLeft=3;spacingRight=3;rotatable=0;labelPosition=right;points=[];portConstraint=eastwest;strokeColor=inherit;" vertex="1" parent="gPTQpDccV7jAP6fVuNsv-7">
          <mxGeometry y="26" width="205" height="8" as="geometry" />
        </mxCell>
        <mxCell id="gPTQpDccV7jAP6fVuNsv-9" value="+ to_string:str&lt;br&gt;+ to_messages:List[BaseMessage]" style="text;strokeColor=none;fillColor=none;align=left;verticalAlign=top;spacingLeft=4;spacingRight=4;overflow=hidden;rotatable=0;points=[[0,0.5],[1,0.5]];portConstraint=eastwest;whiteSpace=wrap;html=1;" vertex="1" parent="gPTQpDccV7jAP6fVuNsv-7">
          <mxGeometry y="34" width="205" height="51" as="geometry" />
        </mxCell>
        <mxCell id="gPTQpDccV7jAP6fVuNsv-18" style="edgeStyle=orthogonalEdgeStyle;rounded=0;orthogonalLoop=1;jettySize=auto;html=1;elbow=vertical;" edge="1" parent="WIyWlLk6GJQsqaUBKTNV-1" source="gPTQpDccV7jAP6fVuNsv-15" target="gPTQpDccV7jAP6fVuNsv-7">
          <mxGeometry relative="1" as="geometry" />
        </mxCell>
        <mxCell id="gPTQpDccV7jAP6fVuNsv-15" value="ChatPromptValueConcrete" style="swimlane;fontStyle=1;align=center;verticalAlign=top;childLayout=stackLayout;horizontal=1;startSize=26;horizontalStack=0;resizeParent=1;resizeParentMax=0;resizeLast=0;collapsible=1;marginBottom=0;whiteSpace=wrap;html=1;" vertex="1" parent="WIyWlLk6GJQsqaUBKTNV-1">
          <mxGeometry x="-114" y="-830" width="205" height="34" as="geometry">
            <mxRectangle x="210" y="280" width="100" height="30" as="alternateBounds" />
          </mxGeometry>
        </mxCell>
        <mxCell id="gPTQpDccV7jAP6fVuNsv-16" value="" style="line;strokeWidth=1;fillColor=none;align=left;verticalAlign=middle;spacingTop=-1;spacingLeft=3;spacingRight=3;rotatable=0;labelPosition=right;points=[];portConstraint=eastwest;strokeColor=inherit;" vertex="1" parent="gPTQpDccV7jAP6fVuNsv-15">
          <mxGeometry y="26" width="205" height="8" as="geometry" />
        </mxCell>
      </root>
    </mxGraphModel>
  </diagram>
</mxfile>
